<mxfile host="app.diagrams.net" modified="2020-12-10T09:49:46.947Z" agent="5.0 (Windows NT 6.1; Win64; x64) AppleWebKit/537.36 (KHTML, like Gecko) Chrome/87.0.4280.88 Safari/537.36" etag="udUdqLBdSAQLoqxYx722" version="14.0.0" type="github">
  <diagram id="kgpKYQtTHZ0yAKxKKP6v" name="Page-1">
    <mxGraphModel dx="981" dy="526" grid="1" gridSize="10" guides="1" tooltips="1" connect="1" arrows="1" fold="1" page="1" pageScale="1" pageWidth="850" pageHeight="1100" math="0" shadow="0">
      <root>
        <mxCell id="0" />
        <mxCell id="1" parent="0" />
        <mxCell id="3nuBFxr9cyL0pnOWT2aG-1" value="调用方" style="shape=umlLifeline;perimeter=lifelinePerimeter;container=1;collapsible=0;recursiveResize=0;rounded=1;shadow=0;strokeWidth=1;glass=0;sketch=1;whiteSpace=wrap;" parent="1" vertex="1">
          <mxGeometry x="152" y="80" width="100" height="440" as="geometry" />
        </mxCell>
        <mxCell id="3nuBFxr9cyL0pnOWT2aG-2" value="" style="points=[];perimeter=orthogonalPerimeter;rounded=0;shadow=0;strokeWidth=1;sketch=1;" parent="3nuBFxr9cyL0pnOWT2aG-1" vertex="1">
          <mxGeometry x="45" y="70" width="10" height="310" as="geometry" />
        </mxCell>
        <mxCell id="3nuBFxr9cyL0pnOWT2aG-3" value="发起支付调用" style="verticalAlign=bottom;startArrow=oval;endArrow=block;startSize=8;shadow=0;strokeWidth=1;fontSize=10;sketch=1;" parent="3nuBFxr9cyL0pnOWT2aG-1" target="3nuBFxr9cyL0pnOWT2aG-2" edge="1">
          <mxGeometry relative="1" as="geometry">
            <mxPoint x="-24" y="70" as="sourcePoint" />
          </mxGeometry>
        </mxCell>
        <mxCell id="3nuBFxr9cyL0pnOWT2aG-5" value="支付网关" style="shape=umlLifeline;perimeter=lifelinePerimeter;container=1;collapsible=0;recursiveResize=0;rounded=1;shadow=0;strokeWidth=1;sketch=1;" parent="1" vertex="1">
          <mxGeometry x="300" y="80" width="100" height="440" as="geometry" />
        </mxCell>
        <mxCell id="3nuBFxr9cyL0pnOWT2aG-6" value="" style="points=[];perimeter=orthogonalPerimeter;rounded=1;shadow=0;strokeWidth=1;sketch=1;" parent="3nuBFxr9cyL0pnOWT2aG-5" vertex="1">
          <mxGeometry x="45" y="80" width="10" height="300" as="geometry" />
        </mxCell>
        <mxCell id="kWhhJcd49TlM-yntaYV9-7" value="" style="html=1;points=[];perimeter=orthogonalPerimeter;rounded=1;shadow=0;glass=0;sketch=1;fontSize=10;" vertex="1" parent="3nuBFxr9cyL0pnOWT2aG-5">
          <mxGeometry x="55" y="108" width="10" height="40" as="geometry" />
        </mxCell>
        <mxCell id="kWhhJcd49TlM-yntaYV9-8" value="&lt;font style=&quot;font-size: 6px&quot;&gt;2.IP白名单验证&lt;/font&gt;" style="edgeStyle=orthogonalEdgeStyle;html=1;align=left;spacingLeft=2;endArrow=block;rounded=0;entryX=1;entryY=0;fontSize=10;sketch=1;" edge="1" target="kWhhJcd49TlM-yntaYV9-7" parent="3nuBFxr9cyL0pnOWT2aG-5">
          <mxGeometry relative="1" as="geometry">
            <mxPoint x="60" y="88" as="sourcePoint" />
            <Array as="points">
              <mxPoint x="85" y="88" />
            </Array>
          </mxGeometry>
        </mxCell>
        <mxCell id="kWhhJcd49TlM-yntaYV9-11" value="" style="html=1;points=[];perimeter=orthogonalPerimeter;rounded=1;shadow=0;glass=0;sketch=1;fontSize=10;" vertex="1" parent="3nuBFxr9cyL0pnOWT2aG-5">
          <mxGeometry x="53" y="250" width="10" height="40" as="geometry" />
        </mxCell>
        <mxCell id="kWhhJcd49TlM-yntaYV9-12" value="&lt;span style=&quot;font-size: 6px&quot;&gt;4.验签及时间戳&lt;/span&gt;" style="edgeStyle=orthogonalEdgeStyle;html=1;align=left;spacingLeft=2;endArrow=block;rounded=0;entryX=1;entryY=0;fontSize=10;sketch=1;" edge="1" target="kWhhJcd49TlM-yntaYV9-11" parent="3nuBFxr9cyL0pnOWT2aG-5">
          <mxGeometry relative="1" as="geometry">
            <mxPoint x="58" y="230" as="sourcePoint" />
            <Array as="points">
              <mxPoint x="83" y="230" />
            </Array>
          </mxGeometry>
        </mxCell>
        <mxCell id="3nuBFxr9cyL0pnOWT2aG-8" value="1.调用支付网关" style="verticalAlign=bottom;endArrow=block;entryX=0;entryY=0;shadow=0;strokeWidth=1;sketch=1;" parent="1" source="3nuBFxr9cyL0pnOWT2aG-2" target="3nuBFxr9cyL0pnOWT2aG-6" edge="1">
          <mxGeometry relative="1" as="geometry">
            <mxPoint x="275" y="160" as="sourcePoint" />
          </mxGeometry>
        </mxCell>
        <mxCell id="kWhhJcd49TlM-yntaYV9-1" value="支付服务" style="shape=umlLifeline;perimeter=lifelinePerimeter;container=1;collapsible=0;recursiveResize=0;rounded=1;shadow=0;strokeWidth=1;sketch=1;" vertex="1" parent="1">
          <mxGeometry x="450" y="80" width="100" height="400" as="geometry" />
        </mxCell>
        <mxCell id="kWhhJcd49TlM-yntaYV9-2" value="" style="points=[];perimeter=orthogonalPerimeter;rounded=1;shadow=0;strokeWidth=1;sketch=1;" vertex="1" parent="kWhhJcd49TlM-yntaYV9-1">
          <mxGeometry x="45" y="80" width="10" height="290" as="geometry" />
        </mxCell>
        <mxCell id="kWhhJcd49TlM-yntaYV9-19" value="" style="html=1;points=[];perimeter=orthogonalPerimeter;rounded=1;shadow=0;glass=0;sketch=1;fontSize=10;" vertex="1" parent="kWhhJcd49TlM-yntaYV9-1">
          <mxGeometry x="55" y="310" width="10" height="40" as="geometry" />
        </mxCell>
        <mxCell id="kWhhJcd49TlM-yntaYV9-20" value="6.权鉴" style="edgeStyle=orthogonalEdgeStyle;html=1;align=left;spacingLeft=2;endArrow=block;rounded=0;entryX=1;entryY=0;fontSize=10;" edge="1" target="kWhhJcd49TlM-yntaYV9-19" parent="kWhhJcd49TlM-yntaYV9-1">
          <mxGeometry relative="1" as="geometry">
            <mxPoint x="60" y="290" as="sourcePoint" />
            <Array as="points">
              <mxPoint x="85" y="290" />
            </Array>
          </mxGeometry>
        </mxCell>
        <mxCell id="kWhhJcd49TlM-yntaYV9-9" value="" style="html=1;points=[];perimeter=orthogonalPerimeter;rounded=1;shadow=0;glass=0;sketch=1;fontSize=10;" vertex="1" parent="1">
          <mxGeometry x="355" y="260" width="10" height="40" as="geometry" />
        </mxCell>
        <mxCell id="kWhhJcd49TlM-yntaYV9-10" value="&lt;span style=&quot;font-size: 6px&quot;&gt;3.商户验证&lt;/span&gt;" style="edgeStyle=orthogonalEdgeStyle;html=1;align=left;spacingLeft=2;endArrow=block;rounded=0;entryX=1;entryY=0;fontSize=10;sketch=1;" edge="1" target="kWhhJcd49TlM-yntaYV9-9" parent="1">
          <mxGeometry relative="1" as="geometry">
            <mxPoint x="360" y="240" as="sourcePoint" />
            <Array as="points">
              <mxPoint x="385" y="240" />
            </Array>
          </mxGeometry>
        </mxCell>
        <mxCell id="kWhhJcd49TlM-yntaYV9-18" value="5.调用支付服务" style="verticalAlign=bottom;endArrow=block;shadow=0;strokeWidth=1;sketch=1;" edge="1" parent="1">
          <mxGeometry relative="1" as="geometry">
            <mxPoint x="353" y="379.9999999999999" as="sourcePoint" />
            <mxPoint x="498" y="380" as="targetPoint" />
          </mxGeometry>
        </mxCell>
        <mxCell id="kWhhJcd49TlM-yntaYV9-22" value="7.参数返回" style="verticalAlign=bottom;endArrow=block;shadow=0;strokeWidth=1;sketch=1;" edge="1" parent="1">
          <mxGeometry relative="1" as="geometry">
            <mxPoint x="488" y="429.9999999999999" as="sourcePoint" />
            <mxPoint x="365" y="430" as="targetPoint" />
          </mxGeometry>
        </mxCell>
        <mxCell id="kWhhJcd49TlM-yntaYV9-23" value="8.参数返回" style="verticalAlign=bottom;endArrow=block;shadow=0;strokeWidth=1;sketch=1;" edge="1" parent="1">
          <mxGeometry relative="1" as="geometry">
            <mxPoint x="332.9999999999998" y="449.9999999999999" as="sourcePoint" />
            <mxPoint x="210" y="450.0000000000001" as="targetPoint" />
          </mxGeometry>
        </mxCell>
      </root>
    </mxGraphModel>
  </diagram>
</mxfile>
